<?xml version="1.0" standalone="no"?>
<!DOCTYPE svg PUBLIC "-//W3C//DTD SVG 20010904//EN"
 "http://www.w3.org/TR/2001/REC-SVG-20010904/DTD/svg10.dtd">
<svg version="1.0" xmlns="http://www.w3.org/2000/svg"
 width="144.000000pt" height="144.000000pt" viewBox="0 0 144.000000 144.000000"
 preserveAspectRatio="xMidYMid meet">
<metadata>
Created by potrace 1.14, written by Peter Selinger 2001-2017
</metadata>
<g transform="translate(0.000000,144.000000) scale(0.100000,-0.100000)"
fill="#000000" stroke="none">
<path d="M0 720 l0 -720 720 0 720 0 0 720 0 720 -720 0 -720 0 0 -720z m421
49 c55 -138 72 -189 61 -187 -9 2 -26 28 -38 58 l-22 55 -87 0 -88 0 -20 -57
c-12 -34 -27 -58 -35 -58 -8 0 -12 6 -9 13 3 6 38 94 78 194 40 101 75 180 78
178 3 -3 39 -91 82 -196z m168 -67 c20 -45 39 -82 42 -82 3 0 21 36 39 81 33
77 46 97 56 86 5 -5 -113 -286 -127 -301 -20 -23 -21 8 -1 49 l21 44 -44 96
c-47 101 -52 119 -34 113 7 -2 28 -41 48 -86z m355 67 l26 -20 0 20 c0 12 5
21 10 21 6 0 10 -42 10 -105 0 -63 -4 -105 -10 -105 -5 0 -10 9 -10 21 l0 20
-26 -20 c-51 -40 -132 -22 -159 36 -48 101 72 200 159 132z m300 0 c47 -37 35
-54 -60 -90 l-87 -33 27 -23 c29 -24 65 -29 96 -13 12 6 21 7 25 1 8 -14 -28
-31 -64 -31 -66 0 -111 44 -111 111 0 22 10 41 34 65 41 41 97 47 140 13z"/>
<path d="M298 820 l-36 -90 73 0 74 0 -34 86 c-19 48 -36 88 -38 90 -2 2 -20
-37 -39 -86z"/>
<path d="M825 745 c-17 -16 -25 -35 -25 -60 0 -100 147 -118 166 -21 16 86
-81 142 -141 81z"/>
<path d="M1123 748 c-22 -25 -35 -65 -23 -73 13 -8 140 46 140 61 0 37 -86 46
-117 12z"/>
</g>
</svg>
